<svg width="39" height="43" viewBox="0 0 39 43" fill="none" xmlns="http://www.w3.org/2000/svg">
<g clip-path="url(#clip0)">
<path d="M35.3473 8.62609L21.9132 0.7367C21.1294 0.274365 20.2339 0.0302734 19.3213 0.0302734C18.4088 0.0302734 17.5132 0.274365 16.7295 0.7367L3.29252 8.62609C2.49801 9.10017 1.84157 9.77018 1.38744 10.5705C0.933322 11.3709 0.697083 12.2742 0.701853 13.192V28.9681C0.697546 29.8855 0.934004 30.7882 1.3881 31.5881C1.84221 32.3879 2.4984 33.0575 3.29252 33.5314L16.7267 41.4181C17.5105 41.8802 18.4061 42.1242 19.3186 42.1242C20.2311 42.1242 21.1266 41.8802 21.9105 41.4181L35.3446 33.5314C36.1396 33.0576 36.7966 32.3877 37.2512 31.5874C37.7058 30.787 37.9425 29.8835 37.938 28.9655V13.192C37.9427 12.2742 37.7065 11.3709 37.2524 10.5705C36.7983 9.77018 36.1418 9.10017 35.3473 8.62609Z" fill="white"/>
<path d="M35.4238 8.64502L21.96 0.738325C21.1745 0.274927 20.2769 0.0302734 19.3623 0.0302734C18.4477 0.0302734 17.5501 0.274927 16.7647 0.738325L3.29818 8.64502C2.50194 9.12015 1.84406 9.79164 1.38894 10.5938C0.933826 11.3959 0.697072 12.3012 0.701853 13.221V29.0319C0.697534 29.9512 0.934509 30.856 1.3896 31.6576C1.84469 32.4592 2.50233 33.1303 3.29818 33.6052L16.762 41.5092C17.5476 41.9723 18.4451 42.2168 19.3596 42.2168C20.2741 42.2168 21.1716 41.9723 21.9571 41.5092L35.4209 33.6052C36.2177 33.1303 36.8761 32.459 37.3317 31.6568C37.7873 30.8546 38.0245 29.9492 38.0199 29.0291V13.221C38.0247 12.3012 37.788 11.3959 37.3329 10.5938C36.8778 9.79167 36.22 9.12017 35.4238 8.64502ZM17.2338 40.7013L3.77 32.7972C3.11589 32.4051 2.57548 31.8523 2.20133 31.1924C1.82718 30.5326 1.63202 29.7882 1.63483 29.0317V13.2211C1.63179 12.4646 1.82685 11.7201 2.20102 11.0603C2.5752 10.4004 3.11573 9.84767 3.77 9.4558L17.2338 1.54893C17.877 1.16937 18.612 0.968963 19.361 0.968963C20.11 0.968963 20.845 1.16937 21.4882 1.54893L34.9411 9.45563C35.489 9.78388 35.9579 10.2264 36.3151 10.7524C36.6722 11.2784 36.9091 11.8751 37.009 12.501C36.5613 11.5597 35.5557 11.301 34.383 11.9677L21.6553 19.765C20.0674 20.6797 18.8973 21.7118 18.8947 23.6051V39.1306C18.8947 40.2639 19.3557 40.9972 20.0674 41.2133C19.8343 41.2555 19.5979 41.2779 19.361 41.28C18.6123 41.2794 17.8775 41.0795 17.2338 40.7013Z" fill="#2F3A3E"/>
<path d="M31.8581 30.5264L28.5117 32.506C28.4678 32.5235 28.43 32.5531 28.4028 32.5914C28.3756 32.6296 28.3602 32.6748 28.3584 32.7216V33.5916C28.3584 33.6981 28.4309 33.7406 28.5197 33.69L31.9174 31.6466C32.0005 31.5848 32.0403 31.4812 32.0195 31.3805V30.6168C32.0168 30.5183 31.9389 30.4758 31.8581 30.5262V30.5264Z" fill="#3AB14A"/>
<path d="M24.7368 23.2379C24.8444 23.1846 24.9332 23.2379 24.9359 23.3895L24.9465 24.5443C25.3489 24.3635 25.7979 24.3096 26.2324 24.3899C26.3158 24.4113 26.3506 24.5231 26.3185 24.6561L26.0629 25.6699C26.0436 25.7463 26.0036 25.8162 25.9473 25.8721C25.9275 25.8913 25.9048 25.9074 25.88 25.9198C25.8496 25.9362 25.8146 25.9419 25.7805 25.936C25.3569 25.8431 24.9134 25.9135 24.5403 26.1328C24.2731 26.2518 24.0452 26.4431 23.8829 26.6846C23.7206 26.9261 23.6306 27.208 23.623 27.4979C23.623 28.03 23.8921 28.1763 24.8309 28.1923C26.0711 28.2137 26.609 28.7485 26.6225 29.9857C26.608 30.6238 26.4531 31.2512 26.1688 31.8241C25.8845 32.3971 25.4776 32.902 24.9762 33.3038L24.9978 34.4372C24.9969 34.5066 24.9784 34.5746 24.9441 34.635C24.9097 34.6955 24.8606 34.7465 24.8012 34.7833L24.1235 35.1689C24.0159 35.2221 23.9269 35.1689 23.9244 35.0199V33.9051C23.3433 34.1446 22.7542 34.2004 22.3775 34.0515C22.3075 34.0248 22.2754 33.9211 22.3049 33.8013L22.5498 32.777C22.5684 32.6959 22.6104 32.6219 22.6707 32.5641C22.6899 32.5459 22.7117 32.5306 22.7354 32.5187C22.7527 32.511 22.7715 32.507 22.7905 32.507C22.8095 32.507 22.8283 32.511 22.8457 32.5187C23.3251 32.6473 23.8366 32.5833 24.2686 32.3406C24.5745 32.1947 24.8342 31.9688 25.0196 31.6874C25.205 31.406 25.3091 31.0798 25.3205 30.7441C25.3205 30.1693 25.0003 29.9299 24.2445 29.9244C23.268 29.9244 22.3614 29.7382 22.3425 28.3279C22.3536 27.7195 22.5007 27.121 22.7733 26.5754C23.0458 26.0298 23.437 25.5506 23.9189 25.1722L23.8706 24.0121C23.8704 23.9419 23.8883 23.8728 23.9227 23.8114C23.957 23.7499 24.0067 23.6982 24.0669 23.661L24.7368 23.2379Z" fill="white"/>
</g>
<defs>
<clipPath id="clip0">
<rect width="37.3189" height="42.1866" fill="white" transform="translate(0.702209 0.0300293)"/>
</clipPath>
</defs>
</svg>
