<svg width="40" height="41" viewBox="0 0 40 41" fill="none" xmlns="http://www.w3.org/2000/svg">
<path d="M25.7049 25.596C25.7049 29.3522 22.2296 29.2654 21.8622 29.2654H14.7847V22.0303H21.8622C25.5859 22.0303 25.7049 24.8556 25.7049 25.596ZM21.3171 19.1191C21.3757 19.1191 24.6804 19.2077 24.6804 15.9033C24.6804 14.5287 24.3733 12.7264 21.3171 12.7264H14.7847V19.1191H21.3171ZM39.3279 7.41677V33.8682C39.3228 35.6206 38.6328 37.2997 37.4087 38.5388C36.1846 39.778 34.5258 40.4764 32.7946 40.4815H6.66343C4.93227 40.4764 3.27346 39.778 2.04934 38.5388C0.825218 37.2997 0.135266 35.6206 0.130188 33.8682L0.130188 7.41677C0.135266 5.66439 0.825218 3.98526 2.04934 2.74614C3.27346 1.50701 4.93227 0.808607 6.66343 0.803467H32.7946C34.5258 0.808607 36.1846 1.50701 37.4087 2.74614C38.6328 3.98526 39.3228 5.66439 39.3279 7.41677ZM29.7078 26.1212C29.7078 24.2109 29.126 20.9587 25.4162 20.1563V20.0916C27.4207 19.2254 28.6832 17.5896 28.6832 15.1637C28.6832 14.5438 28.8582 9.42636 21.8937 9.42636H10.7818V32.5716C22.0013 32.5716 23.0197 32.7204 25.096 32.0659C26.3393 31.6744 29.7078 30.4734 29.7078 26.1212Z" fill="#9D3DE8"/>
</svg>
