<svg width="41" height="24" viewBox="0 0 41 24" fill="none" xmlns="http://www.w3.org/2000/svg">
<path d="M41 23.3547C40.4033 23.5824 39.7446 23.5819 39.1482 23.3533C38.5518 23.1247 38.059 22.6839 37.7627 22.1139L31.869 13.8915L31.0148 12.7419L24.1763 22.1242C23.8979 22.6703 23.4318 23.0953 22.8652 23.3199C22.2986 23.5445 21.6704 23.5532 21.0979 23.3444L29.9095 11.4183L21.7129 0.645251C22.3023 0.430987 22.9468 0.428146 23.538 0.637208C24.1292 0.846269 24.631 1.25446 24.9588 1.79305L31.0678 10.1172L37.2109 1.82752C37.4916 1.29117 37.9578 0.877548 38.5209 0.665292C39.0841 0.453037 39.7049 0.456945 40.2654 0.676273L37.0845 4.93484L32.7761 10.5928C32.6564 10.7005 32.5607 10.8325 32.4951 10.9801C32.4296 11.1277 32.3957 11.2876 32.3957 11.4494C32.3957 11.6111 32.4296 11.771 32.4951 11.9187C32.5607 12.0663 32.6564 12.1982 32.7761 12.3059L40.9829 23.3565L41 23.3547ZM0.00343716 11.2701L0.720937 7.69404C2.69235 0.622848 10.7283 -2.31903 16.2565 2.05846C19.4938 4.62463 20.3018 8.2576 20.143 12.3524H1.90652C1.61098 19.6649 6.84189 24.0803 13.53 21.8244C14.6142 21.4306 15.5847 20.7718 16.3545 19.9067C17.1243 19.0417 17.6694 17.9975 17.9409 16.8678C18.2946 15.72 18.8771 15.5235 19.9465 15.8544C19.7683 17.2545 19.2777 18.5956 18.5116 19.7768C17.7456 20.958 16.7239 21.9486 15.5236 22.674C13.541 23.7681 11.2662 24.2017 9.0245 23.9129C6.78282 23.6241 4.68905 22.6277 3.04256 21.066C1.41457 19.2175 0.43065 16.8824 0.240895 14.4171C0.240895 14.0121 0.104229 13.6329 0.0119788 13.2693C0.00366271 12.6035 -0.000323485 11.9377 2.04936e-05 11.2719L0.00343716 11.2701ZM1.92873 10.7772H18.421C18.3185 5.476 15.0026 1.7155 10.5797 1.68103C5.65631 1.61209 2.13373 5.28987 1.91677 10.7531L1.92873 10.7772Z" fill="#777676"/>
</svg>
