<svg width="50" height="48" viewBox="0 0 50 48" fill="none" xmlns="http://www.w3.org/2000/svg">
<path d="M16.8413 38.3044C16.8413 38.4995 16.6168 38.6556 16.3337 38.6556C16.0115 38.6849 15.787 38.5288 15.787 38.3044C15.787 38.1092 16.0115 37.9531 16.2946 37.9531C16.5875 37.9238 16.8413 38.0799 16.8413 38.3044ZM13.8053 37.8653C13.7369 38.0604 13.9322 38.2848 14.225 38.3434C14.4788 38.441 14.7717 38.3434 14.8303 38.1482C14.8889 37.9531 14.7034 37.7287 14.4105 37.6409C14.1567 37.5725 13.8736 37.6701 13.8053 37.8653ZM18.1202 37.6994C17.8371 37.7677 17.6418 37.9531 17.6711 38.1775C17.7004 38.3727 17.9542 38.4995 18.2471 38.4312C18.5302 38.3629 18.7254 38.1775 18.6961 37.9824C18.6668 37.797 18.4033 37.6701 18.1202 37.6994ZM24.5437 0.309082C11.0035 0.309082 0.645767 10.5836 0.645767 24.1171C0.645767 34.9381 7.45981 44.1978 17.1927 47.4568C18.4423 47.6812 18.8816 46.9104 18.8816 46.2761C18.8816 45.6712 18.8523 42.3342 18.8523 40.2851C18.8523 40.2851 12.0188 41.7487 10.5837 37.3774C10.5837 37.3774 9.47082 34.538 7.86982 33.8062C7.86982 33.8062 5.63427 32.2743 8.02601 32.3036C8.02601 32.3036 10.4568 32.4987 11.7942 34.821C13.9322 38.5873 17.5149 37.5042 18.9109 36.8603C19.1354 35.2991 19.77 34.216 20.4729 33.572C15.0158 32.9671 9.50987 32.1767 9.50987 22.7901C9.50987 20.1068 10.2518 18.7603 11.8138 17.043C11.5599 16.4088 10.7302 13.7938 12.0676 10.4177C14.1079 9.78351 18.8035 13.0522 18.8035 13.0522C20.756 12.5058 22.8548 12.2229 24.9342 12.2229C27.0136 12.2229 29.1124 12.5058 31.0649 13.0522C31.0649 13.0522 35.7605 9.77375 37.8008 10.4177C39.1382 13.8035 38.3085 16.4088 38.0546 17.043C39.6166 18.7701 40.5733 20.1166 40.5733 22.7901C40.5733 32.206 34.8233 32.9573 29.3663 33.572C30.2644 34.3429 31.0258 35.8065 31.0258 38.0994C31.0258 41.3877 30.9965 45.4565 30.9965 46.2566C30.9965 46.8909 31.4456 47.6617 32.6854 47.4373C42.4476 44.1978 49.0664 34.9381 49.0664 24.1171C49.0664 10.5836 38.0839 0.309082 24.5437 0.309082ZM10.1347 33.9623C10.0077 34.0599 10.037 34.2843 10.203 34.4697C10.3592 34.6258 10.5837 34.6941 10.7106 34.5673C10.8375 34.4697 10.8083 34.2453 10.6423 34.0599C10.4861 33.9038 10.2616 33.8355 10.1347 33.9623ZM9.08034 33.172C9.012 33.2988 9.10962 33.4549 9.30487 33.5525C9.46106 33.6501 9.65631 33.6208 9.72464 33.4842C9.79298 33.3574 9.69536 33.2012 9.50011 33.1037C9.30487 33.0451 9.14867 33.0744 9.08034 33.172ZM12.2433 36.6456C12.0871 36.7724 12.1457 37.0652 12.3702 37.2506C12.5947 37.475 12.8778 37.5042 13.0048 37.3481C13.1317 37.2213 13.0731 36.9286 12.8778 36.7432C12.6631 36.5187 12.3702 36.4895 12.2433 36.6456ZM11.1304 35.2113C10.9742 35.3088 10.9742 35.5625 11.1304 35.7869C11.2866 36.0114 11.5502 36.1089 11.6771 36.0114C11.8333 35.8845 11.8333 35.6308 11.6771 35.4064C11.5404 35.182 11.2866 35.0844 11.1304 35.2113Z" fill="#ADADAD"/>
</svg>
