<svg width="21" height="21" viewBox="0 0 21 21" fill="none" xmlns="http://www.w3.org/2000/svg">
<path d="M21 21H0V0H21V21ZM7.11667 16.604L5.52067 17.5887C5.76917 18.1347 6.17283 18.5955 6.68033 18.9152C7.23217 19.2313 7.85867 19.3935 8.4945 19.3818C8.82817 19.3795 9.1595 19.341 9.485 19.2652C9.82107 19.1825 10.1359 19.0298 10.4089 18.8171C10.6819 18.6044 10.907 18.3365 11.0693 18.0308C11.396 17.2608 11.5173 16.4185 11.4193 15.5878V15.1037C11.4252 13.9055 11.4193 12.6863 11.4193 11.5057V9.64717H9.45V15.3603C9.50833 15.9437 9.46633 16.5305 9.32517 17.0987C9.24227 17.2587 9.11407 17.3907 8.95658 17.4782C8.7991 17.5658 8.61931 17.605 8.43967 17.591C8.27515 17.5906 8.1116 17.5658 7.95433 17.5175C7.63837 17.3523 7.38364 17.0902 7.2275 16.7697L7.189 16.7043C7.15283 16.6425 7.12833 16.5993 7.11667 16.5993V16.604V16.604ZM14.0572 16.3707L12.4553 17.2888C12.586 17.5758 12.768 17.8372 12.9897 18.0612C13.0445 18.1218 13.1063 18.1872 13.1635 18.2595C13.9463 18.9595 14.9707 19.3305 16.0207 19.2943C16.6822 19.3595 17.3471 19.2081 17.9152 18.8628C18.4833 18.5176 18.9239 17.9971 19.1707 17.3798V17.3705C19.3037 16.9038 19.3247 16.4138 19.2325 15.9378L19.2722 15.995C19.0995 14.9112 18.3143 14.1587 16.6448 13.4808C16.5153 13.4202 16.3812 13.3642 16.2505 13.3058C15.7313 13.0818 15.2413 12.8718 15.071 12.4892C14.9951 12.2923 14.9813 12.0769 15.0313 11.872C15.0899 11.673 15.2162 11.5008 15.3883 11.3851C15.5605 11.2694 15.7676 11.2175 15.974 11.2385C16.1035 11.2385 16.233 11.2572 16.3578 11.2945C16.7428 11.4228 17.052 11.711 17.2118 12.0832C18.116 11.4917 18.116 11.4917 18.7472 11.0985C18.6028 10.852 18.431 10.6227 18.235 10.4148C17.9394 10.0979 17.576 9.85191 17.1719 9.69514C16.7679 9.53838 16.3337 9.47492 15.9017 9.5095H15.7617L15.1457 9.58767C14.5672 9.7175 14.0438 10.0251 13.6488 10.4673C13.4191 10.7547 13.2494 11.0853 13.1498 11.4395C13.0503 11.7937 13.0229 12.1643 13.0694 12.5293C13.1159 12.8943 13.2352 13.2462 13.4203 13.5642C13.6054 13.8822 13.8525 14.1597 14.147 14.3803C14.658 14.7303 15.2087 15.0173 15.7885 15.2355C16.5363 15.5505 17.1815 15.8188 17.3122 16.31C17.3512 16.4503 17.3573 16.5978 17.3299 16.7408C17.3026 16.8839 17.2426 17.0187 17.1547 17.1348C16.9982 17.2893 16.81 17.408 16.6031 17.4825C16.3962 17.5571 16.1756 17.5857 15.9565 17.5665C15.8344 17.5661 15.7125 17.5583 15.5913 17.5432C15.2653 17.4701 14.9591 17.3271 14.6938 17.1241C14.4285 16.921 14.2105 16.6628 14.0548 16.3672L14.0572 16.3707V16.3707Z" fill="#F8E114"/>
</svg>
