<svg width="34" height="34" viewBox="0 0 34 34" fill="none" xmlns="http://www.w3.org/2000/svg">
<path d="M0 0V33.8176H33.8176V0H0ZM18.4034 26.3747C18.4034 29.6659 16.471 31.1681 13.6554 31.1681C11.1115 31.1681 9.63953 29.8546 8.88467 28.2619L11.4738 26.6993C11.972 27.5825 12.425 28.3298 13.5195 28.3298C14.5612 28.3298 15.2255 27.9222 15.2255 26.3294V15.5274H18.4034V26.3747ZM25.9218 31.1681C22.9703 31.1681 21.0605 29.764 20.132 27.9222L22.7212 26.4276C23.4006 27.5372 24.2913 28.36 25.8539 28.36C27.1673 28.36 28.0128 27.7033 28.0128 26.7899C28.0128 25.7029 27.1522 25.3179 25.6953 24.6763L24.9027 24.3366C22.608 23.3628 21.0907 22.1324 21.0907 19.5433C21.0907 17.1579 22.9099 15.3462 25.7406 15.3462C27.7637 15.3462 29.213 16.0483 30.2547 17.8901L27.7787 19.4753C27.2353 18.5016 26.6465 18.1166 25.7331 18.1166C24.8046 18.1166 24.2158 18.7054 24.2158 19.4753C24.2158 20.4264 24.8046 20.8114 26.1709 21.4078L26.9635 21.7474C29.6659 22.9024 31.1832 24.0875 31.1832 26.7446C31.1832 29.598 28.9337 31.1681 25.9218 31.1681Z" fill="#D9D008"/>
</svg>
