<svg width="44" height="48" viewBox="0 0 44 48" fill="none" xmlns="http://www.w3.org/2000/svg">
<path d="M22.3395 47.3455C21.6958 47.3455 21.0425 47.178 20.4757 46.8615L14.548 43.4644C13.6641 42.9805 14.0965 42.813 14.3847 42.7199C15.5664 42.3197 15.8066 42.2359 17.0651 41.5379C17.1996 41.4634 17.3726 41.4914 17.5071 41.5751L22.0609 44.1904C22.2242 44.2835 22.4548 44.2835 22.6085 44.1904L40.3531 34.2691C40.5165 34.176 40.6221 33.9899 40.6221 33.8037V13.9611C40.6221 13.7657 40.5165 13.5888 40.3435 13.4865L22.6085 3.57445C22.4452 3.48138 22.2242 3.48138 22.0609 3.57445L4.33548 13.4958C4.16255 13.5888 4.05687 13.775 4.05687 13.9704V33.8037C4.05687 33.9899 4.16255 34.176 4.33548 34.2598L9.19676 36.9774C11.8388 38.2525 13.4528 36.7541 13.4528 35.237V15.655C13.4528 15.3758 13.6834 15.1617 13.9716 15.1617H16.2197C16.4983 15.1617 16.7385 15.3758 16.7385 15.655V35.2463C16.7385 38.6527 14.817 40.6072 11.4833 40.6072C10.4553 40.6072 9.64831 40.6072 7.4002 39.5276L2.75029 36.9309C1.59741 36.2887 0.886475 35.0881 0.886475 33.7944V13.9611C0.886475 12.6767 1.59741 11.4668 2.75029 10.8246L20.4757 0.903326C21.5998 0.289061 23.0889 0.289061 24.2033 0.903326L41.948 10.8339C43.1008 11.4761 43.8118 12.6767 43.8118 13.9704V33.8037C43.8118 35.0881 43.1008 36.2887 41.948 36.9402L24.2033 46.8615C23.6365 47.178 22.9928 47.3455 22.3395 47.3455ZM36.664 27.7914C36.664 24.0779 34.07 23.0913 28.6227 22.3933C23.1081 21.686 22.5509 21.323 22.5509 20.0758C22.5509 19.0428 23.0216 17.6653 27.1047 17.6653C30.7459 17.6653 32.0909 18.4285 32.6481 20.8111C32.6961 21.0345 32.9075 21.202 33.1477 21.202H35.4534C35.5975 21.202 35.732 21.1461 35.8281 21.0438C35.9242 20.9414 35.9722 20.8018 35.9626 20.6622C35.6072 16.5578 32.7922 14.6498 27.1047 14.6498C22.0417 14.6498 19.025 16.716 19.025 20.1875C19.025 23.9476 22.0321 24.99 26.8837 25.4553C32.6961 26.0044 33.1477 26.8328 33.1477 27.9403C33.1477 29.8575 31.5529 30.6766 27.8157 30.6766C23.1177 30.6766 22.0897 29.5318 21.7439 27.2702C21.7054 27.0282 21.4941 26.8514 21.2347 26.8514H18.9385C18.6503 26.8514 18.4294 27.0747 18.4294 27.3446C18.4294 30.2391 20.053 33.692 27.8253 33.692C33.4359 33.6827 36.664 31.5328 36.664 27.7914Z" fill="#12B618"/>
</svg>
