<svg width="47" height="42" viewBox="0 0 47 42" fill="none" xmlns="http://www.w3.org/2000/svg">
<path d="M38.5011 14.0257C38.0147 13.8636 37.5283 13.7105 37.0419 13.5664C37.123 13.2331 37.1951 12.8999 37.2671 12.5666C38.375 7.19858 37.6454 2.88431 35.1865 1.46124C32.8177 0.101207 28.9538 1.51528 25.0449 4.91986C24.6576 5.25311 24.2793 5.60437 23.919 5.95564C23.6758 5.72146 23.4236 5.48729 23.1714 5.26212C19.0733 1.62336 14.9662 0.0922006 12.5074 1.52428C10.1476 2.89332 9.44505 6.9554 10.4358 12.0352C10.5349 12.5396 10.643 13.035 10.7691 13.5394C10.1926 13.7015 9.62519 13.8816 9.09379 14.0708C4.28415 15.737 0.834534 18.367 0.834534 21.0871C0.834534 23.8972 4.50932 26.7164 9.5081 28.4277C9.91341 28.5628 10.3187 28.6979 10.733 28.8149C10.5979 29.3554 10.4808 29.8868 10.3728 30.4362C9.42704 35.435 10.1656 39.398 12.5254 40.758C14.9572 42.1631 19.0463 40.722 23.0273 37.2363C23.3426 36.9571 23.6578 36.6689 23.9731 36.3627C24.3694 36.75 24.7837 37.1192 25.198 37.4795C29.0529 40.794 32.8628 42.136 35.2136 40.776C37.6454 39.3709 38.438 35.1107 37.4112 29.9228C37.3302 29.5265 37.2401 29.1212 37.141 28.7069C37.4292 28.6258 37.7085 28.5357 37.9877 28.4457C43.1846 26.7254 46.9494 23.9423 46.9494 21.0871C46.9494 18.358 43.4008 15.71 38.5011 14.0257ZM26.3148 6.37896C29.6654 3.46075 32.7907 2.31688 34.2138 3.13651C35.736 4.01017 36.3214 7.54084 35.3667 12.1794C35.3036 12.4856 35.2406 12.7828 35.1595 13.08C33.16 12.6297 31.1335 12.3054 29.0979 12.1253C27.927 10.45 26.6481 8.84683 25.261 7.34269C25.6123 7.00944 25.9546 6.6942 26.3148 6.37896ZM15.8939 25.7616C16.3533 26.5452 16.8216 27.3288 17.317 28.0944C15.9119 27.9413 14.5159 27.7161 13.1378 27.4189C13.5341 26.1219 14.0295 24.7799 14.606 23.4109C15.0203 24.2035 15.4436 24.987 15.8939 25.7616ZM13.1649 14.9264C14.4619 14.6382 15.8399 14.404 17.272 14.2239C16.7946 14.9715 16.3263 15.737 15.8849 16.5116C15.4436 17.2772 15.0113 18.0608 14.606 18.8534C14.0385 17.5114 13.5612 16.1964 13.1649 14.9264ZM15.6327 21.1321C16.2272 19.8892 16.8757 18.6733 17.5602 17.4754C18.2447 16.2775 18.9833 15.1156 19.7579 13.9717C21.1089 13.8726 22.4869 13.8186 23.892 13.8186C25.2971 13.8186 26.6841 13.8726 28.0261 13.9717C28.7917 15.1066 29.5213 16.2684 30.2148 17.4573C30.9083 18.6462 31.5568 19.8622 32.1693 21.0961C31.5658 22.339 30.9173 23.564 30.2238 24.7709C29.5393 25.9688 28.8097 27.1307 28.0441 28.2835C26.7021 28.3826 25.3061 28.4277 23.892 28.4277C22.4779 28.4277 21.1089 28.3826 19.7849 28.3016C19.0013 27.1577 18.2627 25.9868 17.5692 24.7889C16.8757 23.591 16.2362 22.3751 15.6327 21.1321ZM31.8991 25.7436C32.3584 24.951 32.7907 24.1494 33.2141 23.3388C33.7905 24.6448 34.2949 25.9688 34.7362 27.3288C33.3401 27.6441 31.9261 27.8872 30.503 28.0494C30.9894 27.2928 31.4487 26.5182 31.8991 25.7436ZM33.196 18.8534C32.7727 18.0608 32.3404 17.2682 31.89 16.4936C31.4487 15.728 30.9894 14.9715 30.512 14.2239C31.9621 14.404 33.3492 14.6472 34.6461 14.9444C34.2318 16.2775 33.7454 17.5744 33.196 18.8534ZM23.91 8.72073C24.8557 9.74751 25.7474 10.8283 26.576 11.9452C24.7927 11.8641 23.0003 11.8641 21.217 11.9452C22.0996 10.7833 23.0093 9.70248 23.91 8.72073ZM13.4621 3.19955C14.9752 2.31688 18.3348 3.57784 21.8745 6.71221C22.0996 6.91036 22.3248 7.12653 22.559 7.34269C21.1629 8.84683 19.875 10.45 18.6951 12.1253C16.6595 12.3054 14.642 12.6207 12.6425 13.062C12.5254 12.6027 12.4263 12.1343 12.3272 11.666C11.4806 7.30666 12.039 4.01917 13.4621 3.19955ZM11.2554 26.9415C10.8771 26.8334 10.5079 26.7164 10.1386 26.5903C8.22013 25.9868 6.04047 25.0321 4.46428 23.7801C3.55459 23.1497 2.94213 22.1769 2.771 21.0871C2.771 19.4388 5.61715 17.3313 9.72426 15.8992C10.2377 15.719 10.76 15.5569 11.2824 15.4038C11.8949 17.3583 12.6335 19.2767 13.4891 21.1321C12.6245 23.0146 11.8769 24.96 11.2554 26.9415ZM21.7574 35.7682C20.2712 37.1282 18.5509 38.2091 16.6775 38.9476C15.6778 39.425 14.5249 39.47 13.4981 39.0647C12.066 38.2361 11.4716 35.0567 12.2822 30.7784C12.3813 30.2741 12.4894 29.7697 12.6155 29.2743C14.633 29.7066 16.6685 30.0038 18.7311 30.157C19.92 31.8412 21.226 33.4535 22.622 34.9666C22.3338 35.2458 22.0456 35.516 21.7574 35.7682ZM23.964 33.5796C23.0453 32.5888 22.1267 31.49 21.235 30.3101C22.0996 30.3461 22.9913 30.3641 23.892 30.3641C24.8197 30.3641 25.7294 30.3461 26.6301 30.3011C25.8014 31.4449 24.9098 32.5348 23.964 33.5796ZM35.736 36.2816C35.6549 37.3804 35.1145 38.4072 34.2498 39.1007C32.8177 39.9294 29.7644 38.8485 26.4679 36.0204C26.0897 35.6962 25.7114 35.3449 25.3241 34.9846C26.7021 33.4625 27.9721 31.8502 29.125 30.157C31.1875 29.9858 33.2411 29.6706 35.2676 29.2112C35.3577 29.5805 35.4387 29.9498 35.5108 30.3101C35.9521 32.2556 36.0242 34.2821 35.736 36.2816ZM37.3752 26.5993C37.123 26.6803 36.8708 26.7614 36.6096 26.8334C35.9791 24.87 35.2046 22.9515 34.3129 21.0871C35.1775 19.2497 35.9071 17.3583 36.5196 15.4218C36.9879 15.5569 37.4382 15.701 37.8706 15.8451C42.0678 17.2862 45.013 19.4298 45.013 21.0691C45.013 22.8344 41.8696 25.1131 37.3752 26.5993ZM23.892 25.2482C26.1707 25.2482 28.0171 23.4018 28.0171 21.1231C28.0171 18.8444 26.1707 16.998 23.892 16.998C21.6133 16.998 19.7669 18.8444 19.7669 21.1231C19.7669 23.4018 21.6133 25.2482 23.892 25.2482Z" fill="#3EB8C9"/>
</svg>
