<svg width="43" height="41" viewBox="0 0 43 41" fill="none" xmlns="http://www.w3.org/2000/svg">
<path d="M20.2107 0.474365C13.5937 0.474365 8.21069 7.74436 8.21069 16.6794C8.21069 21.5134 9.79269 25.8484 12.2887 28.8154C12.2407 29.0284 12.2107 29.2474 12.2107 29.4744C12.2107 31.1314 13.5537 32.4744 15.2107 32.4744C16.8677 32.4744 18.2107 31.1314 18.2107 29.4744C18.2107 27.8174 16.8677 26.4744 15.2107 26.4744C14.8957 26.4744 14.5987 26.5364 14.3137 26.6264C12.4167 24.2054 11.2107 20.6494 11.2107 16.6794C11.2107 9.39837 15.2477 3.47437 20.2107 3.47437C24.0477 3.47437 27.3217 7.02136 28.6147 11.9924C29.7367 12.3384 30.8517 12.7744 31.9447 13.3004C30.7897 5.98237 25.9697 0.474365 20.2107 0.474365Z" fill="#8449EB"/>
<path d="M32.7177 16.5584C28.7707 14.1664 24.3437 13.1164 20.5357 13.5994C19.9857 12.9184 19.1537 12.4744 18.2107 12.4744C16.5537 12.4744 15.2107 13.8174 15.2107 15.4744C15.2107 17.1314 16.5537 18.4744 18.2107 18.4744C19.4827 18.4744 20.5637 17.6794 20.9997 16.5624C24.1177 16.1834 27.8117 17.0934 31.1627 19.1254C37.5657 23.0064 40.8327 29.6944 38.4447 34.0364C37.6177 35.5404 36.1587 36.6084 34.2267 37.1264C31.9407 37.7374 29.2197 37.5204 26.4997 36.5984C25.6607 37.3704 24.7507 38.0964 23.7747 38.7664C26.3267 39.8834 28.9707 40.4704 31.4437 40.4704C32.6837 40.4704 33.8817 40.3234 35.0027 40.0234C37.7437 39.2904 39.8437 37.7194 41.0737 35.4814C44.2267 29.7504 40.4777 21.2614 32.7177 16.5584Z" fill="#8449EB"/>
<path d="M32.2107 25.4664C32.2107 23.8144 30.8677 22.4744 29.2107 22.4744C27.5537 22.4744 26.2107 23.8144 26.2107 25.4664C26.2107 26.1354 26.4387 26.7474 26.8107 27.2454C25.5317 30.0474 23.0667 32.8124 19.7487 34.8234C15.8837 37.1674 11.5637 38.0254 8.19367 37.1254C6.26167 36.6074 4.80267 35.5394 3.97567 34.0354C2.27367 30.9414 3.45467 26.6594 6.58567 23.0474C6.26267 21.9034 6.02367 20.7074 5.87967 19.4724C0.809671 24.2694 -1.22933 30.7954 1.34767 35.4814C2.57767 37.7194 4.67767 39.2904 7.41867 40.0234C8.53967 40.3234 9.73667 40.4704 10.9777 40.4704C14.3237 40.4704 17.9847 39.4024 21.3037 37.3904C25.1397 35.0654 27.9867 31.8134 29.5127 28.4284C31.0257 28.2754 32.2107 27.0154 32.2107 25.4664Z" fill="#8449EB"/>
</svg>
