<svg width="42" height="33" viewBox="0 0 42 33" fill="none" xmlns="http://www.w3.org/2000/svg">
<path d="M20.1203 24.3771C20.1013 24.4167 20.0822 24.4484 20.1203 24.3771V24.3771ZM35.977 18.6307C34.6969 18.6303 33.4338 18.9354 32.2854 19.5224C31.9099 18.7364 31.5217 18.0495 31.458 17.5343C31.3816 16.9332 31.2989 16.5766 31.388 15.8632C31.4771 15.1499 31.8781 14.1393 31.8717 14.0667C31.8654 13.994 31.7826 13.6307 30.9616 13.6241C30.1405 13.6175 29.434 13.7893 29.3519 14.0138C29.2069 14.4242 29.0941 14.8461 29.0146 15.2754C28.8682 16.0482 27.3731 18.8091 26.5265 20.249C26.2465 19.6875 26.011 19.1922 25.9601 18.7959C25.8837 18.1948 25.801 17.8381 25.8901 17.1248C25.9792 16.4115 26.3802 15.4009 26.3738 15.3282C26.3674 15.2556 26.2847 14.8923 25.4643 14.8857C24.6438 14.8791 23.9367 15.0508 23.854 15.2754C23.7712 15.5 23.6821 16.0284 23.5166 16.5369C23.3511 17.0455 21.3596 21.6426 20.8383 22.8381C20.571 23.4458 20.3418 23.9346 20.1764 24.2648C20.1509 24.3176 20.1318 24.3507 20.1191 24.3771C20.1382 24.3441 20.1509 24.311 20.1509 24.3242C20.0109 24.6083 19.9281 24.7668 19.9281 24.7668V24.7734C19.8199 24.9847 19.699 25.1763 19.6417 25.1763C19.6035 25.1763 19.5208 24.6215 19.6608 23.8619C19.96 22.2635 20.6665 19.78 20.6601 19.6941C20.6537 19.6479 20.7937 19.2186 20.1955 18.9874C19.6163 18.7694 19.4062 19.1327 19.3553 19.1327C19.3044 19.1327 19.2662 19.2648 19.2662 19.2648C19.2662 19.2648 19.909 16.4643 18.0321 16.4643C16.8609 16.4643 15.2315 17.7985 14.4308 19.0072C13.928 19.2912 12.8396 19.9055 11.694 20.5594C11.2548 20.8104 10.8029 21.068 10.3764 21.3124C10.3446 21.2793 10.3192 21.2463 10.2873 21.2133C8.00937 18.6902 3.80349 16.9068 3.98171 13.5185C4.04535 12.2833 4.45907 9.04027 12.0695 5.10369C18.307 1.88045 23.2938 2.76552 24.1525 4.73381C25.3872 7.54094 21.4862 12.7655 15.0088 13.5185C12.5398 13.8025 11.2421 12.8117 10.9175 12.4418C10.5801 12.0522 10.5292 12.0323 10.4019 12.105C10.1919 12.2239 10.3255 12.5673 10.4019 12.7721C10.5928 13.2939 11.3884 14.2186 12.7435 14.6809C13.9337 15.0838 16.8285 15.3084 20.3285 13.9016C24.2607 12.3296 27.3215 7.95045 26.4241 4.28467C25.5101 0.55945 19.5577 -0.662475 13.9293 1.4115C10.5757 2.64663 6.94899 4.5885 4.34005 7.11822C1.24101 10.1301 0.745194 12.7523 0.948868 13.8487C1.67382 17.7391 6.84078 20.2754 8.90872 22.1512C8.80688 22.2106 8.71141 22.2635 8.6223 22.3163C7.58547 22.8513 3.64628 24.9914 2.66037 27.2503C1.54653 29.813 2.84495 31.6492 3.6972 31.9002C6.35706 32.6664 9.08057 31.2859 10.5438 29.0204C12.0071 26.7549 11.8295 23.7958 11.1549 22.4484C11.1485 22.4286 11.1358 22.4154 11.1294 22.3956C11.3967 22.2305 11.6704 22.0653 11.9441 21.9002C12.4717 21.5766 12.9873 21.2793 13.4392 21.0217C13.1846 21.7351 13 22.5937 12.9046 23.8355C12.79 25.2886 13.3692 27.171 14.1202 27.9108C14.4512 28.2344 14.8516 28.241 15.0998 28.241C15.9781 28.241 16.3727 27.488 16.8113 26.5898C17.3523 25.4933 17.8297 24.2186 17.8297 24.2186C17.8297 24.2186 17.2314 27.6664 18.8671 27.6664C19.4648 27.6664 20.0631 26.8672 20.331 26.4577V26.4643C20.331 26.4643 20.3438 26.4378 20.3756 26.385C20.4392 26.2859 20.4711 26.2265 20.4711 26.2265V26.2067C20.7129 25.7773 21.2412 24.7932 22.0362 23.1684C23.0673 21.068 24.0532 18.4458 24.0532 18.4458C24.1484 19.0222 24.2803 19.5915 24.4478 20.1499C24.626 20.7774 25.0015 21.4643 25.3007 22.1314C25.0588 22.4748 24.9124 22.673 24.9124 22.673C24.9129 22.6781 24.9152 22.6828 24.9188 22.6862C24.7278 22.9504 24.5114 23.2344 24.2887 23.5118C23.4746 24.5158 22.5065 25.6651 22.3792 25.9953C22.2265 26.385 22.2647 26.6756 22.5574 26.9002C22.7738 27.0719 23.1557 27.0983 23.5561 27.0653C24.288 27.0125 24.8036 26.8275 25.0518 26.7087C25.5094 26.5384 25.9419 26.3027 26.3369 26.0085C27.1325 25.4009 27.6162 24.529 27.5716 23.3797C27.5462 22.7457 27.3489 22.1116 27.107 21.5171C27.177 21.4114 27.2534 21.2992 27.3234 21.1869C28.583 19.278 29.5568 17.1829 29.5568 17.1829C29.6521 17.7593 29.7839 18.3286 29.9515 18.887C30.1042 19.422 30.4027 20.0099 30.6764 20.5845C29.4932 21.5818 28.7612 22.7377 28.5066 23.4973C28.0356 24.9042 28.4048 25.5382 29.0986 25.6836C29.4104 25.7496 29.856 25.5977 30.187 25.4524C30.6785 25.2825 31.142 25.0352 31.5611 24.7192C32.3567 24.1116 33.1262 23.2595 33.0753 22.1036C33.0562 21.5818 32.9162 21.0601 32.7316 20.5581C33.7309 20.1221 35.0287 19.8844 36.6835 20.0825C40.2275 20.5118 40.9212 22.8104 40.7876 23.7681C40.6539 24.7258 39.9092 25.2608 39.661 25.4194C39.4128 25.5779 39.3364 25.6373 39.3555 25.7562C39.3873 25.9279 39.5019 25.9213 39.7119 25.8817C40.0047 25.8289 41.5698 25.1023 41.6398 23.3256C41.7417 21.0799 39.661 18.6096 35.9751 18.6294L35.977 18.6307ZM8.66049 28.1882C7.49 29.5158 5.84787 30.0178 5.14201 29.595C4.3846 29.138 4.68375 27.1842 6.12792 25.7694C7.00627 24.9108 8.13857 24.1182 8.88962 23.6294C9.06147 23.5237 9.3097 23.3652 9.61521 23.1737C9.66613 23.1406 9.69159 23.1274 9.69159 23.1274C9.74887 23.0878 9.81252 23.0548 9.87617 23.0151C10.4038 25.0231 9.89526 26.7932 8.66049 28.1869V28.1882ZM17.2123 22.1512C16.8049 23.1882 15.9463 25.8302 15.4244 25.6915C14.9788 25.5726 14.7052 23.5581 15.3353 21.5766C15.6535 20.5792 16.3282 19.3903 16.7292 18.928C17.3714 18.1816 18.0779 17.9438 18.2434 18.241C18.4661 18.6307 17.4669 21.5039 17.2123 22.1512ZM24.2772 25.6519C24.1054 25.7443 23.9462 25.8038 23.8699 25.7575C23.8126 25.7245 23.9399 25.599 23.9399 25.599C23.9399 25.599 24.8246 24.6149 25.1747 24.1657C25.3783 23.9015 25.6138 23.5911 25.8678 23.2476C25.8678 23.2807 25.8741 23.3137 25.8741 23.3533C25.8659 24.5356 24.7718 25.3348 24.2753 25.6519H24.2772ZM29.7242 24.3639C29.5969 24.2714 29.616 23.961 30.0425 22.9966C30.208 22.6202 30.5892 21.9861 31.2518 21.3784C31.3268 21.6084 31.3676 21.849 31.3727 22.0918C31.3664 23.5779 30.3416 24.1327 29.7249 24.3639H29.7242Z" fill="#D16AD3"/>
</svg>
