<svg width="97" height="98" viewBox="0 0 97 98" fill="none" xmlns="http://www.w3.org/2000/svg">
<path d="M91.3363 27.0135C98.0856 40.6587 99.098 56.638 92.7706 70.1036C86.5275 83.659 72.9445 94.6111 54.9745 97.3043C37.0046 100.087 14.5631 94.6111 5.1985 79.2603C-4.08177 63.9094 -0.200929 38.6837 11.0198 22.3454C22.2405 5.9173 40.801 -1.53371 56.4088 0.261716C72.0165 2.14691 84.5871 13.3683 91.3363 27.0135Z" fill="url(#paint0_linear)"/>
<path d="M74.2875 53.3475C74.2875 55.2025 73.9783 56.9058 73.36 58.4575C72.7417 60.0092 71.8725 61.345 70.7525 62.465C69.6325 63.585 68.285 64.4542 66.71 65.0725C65.135 65.6908 63.385 66 61.46 66H51.8175V40.695H61.46C63.385 40.695 65.135 41.01 66.71 41.64C68.285 42.2583 69.6325 43.1275 70.7525 44.2475C71.8725 45.3558 72.7417 46.6858 73.36 48.2375C73.9783 49.7892 74.2875 51.4925 74.2875 53.3475ZM69.4575 53.3475C69.4575 51.9592 69.2708 50.7167 68.8975 49.62C68.5358 48.5117 68.005 47.5783 67.305 46.82C66.6167 46.05 65.7767 45.4608 64.785 45.0525C63.805 44.6442 62.6967 44.44 61.46 44.44H56.5425V62.255H61.46C62.6967 62.255 63.805 62.0508 64.785 61.6425C65.7767 61.2342 66.6167 60.6508 67.305 59.8925C68.005 59.1225 68.5358 58.1892 68.8975 57.0925C69.2708 55.9842 69.4575 54.7358 69.4575 53.3475Z" fill="white"/>
<path d="M37.465 52.735C38.3517 52.735 39.1217 52.6242 39.775 52.4025C40.44 52.1808 40.9825 51.8775 41.4025 51.4925C41.8342 51.0958 42.155 50.6292 42.365 50.0925C42.575 49.5558 42.68 48.9667 42.68 48.325C42.68 47.0417 42.2542 46.0558 41.4025 45.3675C40.5625 44.6792 39.2733 44.335 37.535 44.335H34.525V52.735H37.465ZM49.575 66H45.3225C44.5175 66 43.9342 65.685 43.5725 65.055L38.2525 56.9525C38.0542 56.6492 37.8325 56.4333 37.5875 56.305C37.3542 56.1767 37.0042 56.1125 36.5375 56.1125H34.525V66H29.8175V40.695H37.535C39.25 40.695 40.72 40.8758 41.945 41.2375C43.1817 41.5875 44.1908 42.0833 44.9725 42.725C45.7658 43.3667 46.3492 44.1367 46.7225 45.035C47.0958 45.9217 47.2825 46.9017 47.2825 47.975C47.2825 48.8267 47.1542 49.6317 46.8975 50.39C46.6525 51.1483 46.2908 51.8367 45.8125 52.455C45.3458 53.0733 44.7625 53.6158 44.0625 54.0825C43.3742 54.5492 42.5867 54.9167 41.7 55.185C42.0033 55.36 42.2833 55.57 42.54 55.815C42.7967 56.0483 43.03 56.3283 43.24 56.655L49.575 66Z" fill="white"/>
<defs>
<linearGradient id="paint0_linear" x1="17" y1="15" x2="86" y2="78.5" gradientUnits="userSpaceOnUse">
<stop stop-color="#78E4EB"/>
<stop offset="1" stop-color="#11EAC3" stop-opacity="0.17"/>
</linearGradient>
</defs>
</svg>
