<svg width="97" height="98" viewBox="0 0 97 98" fill="none" xmlns="http://www.w3.org/2000/svg">
<path d="M91.3363 27.0135C98.0856 40.6587 99.098 56.638 92.7706 70.1036C86.5275 83.659 72.9445 94.6111 54.9745 97.3043C37.0046 100.087 14.5631 94.6111 5.1985 79.2603C-4.08177 63.9094 -0.200929 38.6837 11.0198 22.3454C22.2405 5.9173 40.801 -1.53371 56.4088 0.261716C72.0165 2.14691 84.5871 13.3683 91.3363 27.0135Z" fill="url(#paint0_linear)"/>
<path d="M61.52 32.92C65.2 32.92 68.0933 34.3733 70.2 37.28C72.3067 40.1867 73.36 43.84 73.36 48.24C73.36 52.72 72.1467 56.6667 69.72 60.08C68.5467 61.76 66.96 63.1067 64.96 64.12C62.9867 65.1067 60.9333 65.6 58.8 65.6C56.6933 65.6 54.8267 65.3733 53.2 64.92C51.6 64.4667 50.44 64.0133 49.72 63.56L48.6 62.88C48.6267 62.6667 48.92 60.68 49.48 56.92C50.6533 49.08 51.24 41.9733 51.24 35.6C51.24 33.4933 51.0533 32 50.68 31.12C52.8933 31.8667 54.28 33.04 54.84 34.64C57.2133 33.4933 59.44 32.92 61.52 32.92ZM53.24 62.2C54.4133 62.6 55.84 62.8 57.52 62.8C59.2 62.8 60.8267 62.3733 62.4 61.52C63.9733 60.64 65.24 59.48 66.2 58.04C68.1733 55.1333 69.16 51.8533 69.16 48.2C69.16 44.5467 68.3467 41.6 66.72 39.36C65.0933 37.12 62.9067 36 60.16 36C58.32 36 56.72 36.3067 55.36 36.92C55.36 38.5733 55 42.7333 54.28 49.4C53.5867 56.0667 53.24 60.3333 53.24 62.2Z" fill="white"/>
<path d="M28.24 64.68C27.04 64.68 26.1467 64.4133 25.56 63.88C24.9733 63.32 24.68 62.4267 24.68 61.2C24.68 59.9467 25.12 56.16 26 49.84C26.9067 43.4933 27.36 38.9733 27.36 36.28C27.36 33.56 27.1733 31.7867 26.8 30.96C28.9333 31.1733 30.32 32.2267 30.96 34.12C32.9333 33.0533 35.0933 32.52 37.44 32.52C39.7867 32.52 41.6933 33.28 43.16 34.8C44.6267 36.2933 45.36 38.04 45.36 40.04C45.36 42.0133 44.76 43.8533 43.56 45.56C42.3867 47.24 40.5867 48.48 38.16 49.28L38.72 51C39.68 53.9067 41.0667 56.8 42.88 59.68C44.6933 62.5333 46.1733 64.48 47.32 65.52C46.76 65.7867 45.9467 65.92 44.88 65.92C43.84 65.92 42.7467 65.4533 41.6 64.52C40.48 63.5867 39.4533 62.2667 38.52 60.56C36.92 57.5733 35.48 54.08 34.2 50.08C33.24 50.1333 32.5067 50.16 32 50.16L31.88 48.72C34.8667 48.6133 37.1733 47.7467 38.8 46.12C40.4533 44.4933 41.28 42.5733 41.28 40.36C41.28 38.9467 40.8 37.7733 39.84 36.84C38.9067 35.9067 37.64 35.44 36.04 35.44C34.44 35.44 32.8667 35.72 31.32 36.28C31.32 37.32 30.9333 40.6933 30.16 46.4C29.4133 52.1067 29.04 56.8667 29.04 60.68C29.04 62.36 29.12 63.6667 29.28 64.6C28.64 64.6533 28.2933 64.68 28.24 64.68Z" fill="white"/>
<defs>
<linearGradient id="paint0_linear" x1="17" y1="15" x2="86" y2="78.5" gradientUnits="userSpaceOnUse">
<stop stop-color="#ADED7A"/>
<stop offset="1" stop-color="#11EA4E" stop-opacity="0.53"/>
</linearGradient>
</defs>
</svg>
