<svg width="102" height="23" viewBox="0 0 102 23" fill="none" xmlns="http://www.w3.org/2000/svg">
<path d="M5.56 16.32L0.96 11.78L5.56 7.24H8.44L3.82 11.78L8.44 16.32H5.56ZM19.9661 19L16.7661 13.44H15.0261V19H12.7461V5.1H17.5461C18.6128 5.1 19.5128 5.28667 20.2461 5.66C20.9928 6.03333 21.5461 6.53333 21.9061 7.16C22.2794 7.78667 22.4661 8.48667 22.4661 9.26C22.4661 10.1667 22.1994 10.9933 21.6661 11.74C21.1461 12.4733 20.3394 12.9733 19.2461 13.24L22.6861 19H19.9661ZM15.0261 11.62H17.5461C18.3994 11.62 19.0394 11.4067 19.4661 10.98C19.9061 10.5533 20.1261 9.98 20.1261 9.26C20.1261 8.54 19.9128 7.98 19.4861 7.58C19.0594 7.16667 18.4128 6.96 17.5461 6.96H15.0261V11.62ZM30.1628 19.18C29.1228 19.18 28.1828 18.9467 27.3428 18.48C26.5028 18 25.8428 17.3333 25.3628 16.48C24.8828 15.6133 24.6428 14.6133 24.6428 13.48C24.6428 12.36 24.8895 11.3667 25.3828 10.5C25.8761 9.63333 26.5495 8.96667 27.4028 8.5C28.2561 8.03333 29.2095 7.8 30.2628 7.8C31.3161 7.8 32.2695 8.03333 33.1228 8.5C33.9761 8.96667 34.6495 9.63333 35.1428 10.5C35.6361 11.3667 35.8828 12.36 35.8828 13.48C35.8828 14.6 35.6295 15.5933 35.1228 16.46C34.6161 17.3267 33.9228 18 33.0428 18.48C32.1761 18.9467 31.2161 19.18 30.1628 19.18ZM30.1628 17.2C30.7495 17.2 31.2961 17.06 31.8028 16.78C32.3228 16.5 32.7428 16.08 33.0628 15.52C33.3828 14.96 33.5428 14.28 33.5428 13.48C33.5428 12.68 33.3895 12.0067 33.0828 11.46C32.7761 10.9 32.3695 10.48 31.8628 10.2C31.3561 9.92 30.8095 9.78 30.2228 9.78C29.6361 9.78 29.0895 9.92 28.5828 10.2C28.0895 10.48 27.6961 10.9 27.4028 11.46C27.1095 12.0067 26.9628 12.68 26.9628 13.48C26.9628 14.6667 27.2628 15.5867 27.8628 16.24C28.4761 16.88 29.2428 17.2 30.1628 17.2ZM43.8367 7.8C44.6767 7.8 45.4234 7.98 46.0767 8.34C46.7434 8.7 47.2634 9.23333 47.6367 9.94C48.0234 10.6467 48.2167 11.5 48.2167 12.5V19H45.9567V12.84C45.9567 11.8533 45.7101 11.1 45.2167 10.58C44.7234 10.0467 44.0501 9.78 43.1967 9.78C42.3434 9.78 41.6634 10.0467 41.1567 10.58C40.6634 11.1 40.4167 11.8533 40.4167 12.84V19H38.1367V4.2H40.4167V9.26C40.8034 8.79333 41.2901 8.43333 41.8767 8.18C42.4767 7.92667 43.1301 7.8 43.8367 7.8ZM50.365 13.44C50.365 12.3333 50.5917 11.3533 51.045 10.5C51.5117 9.64667 52.1383 8.98667 52.925 8.52C53.725 8.04 54.605 7.8 55.565 7.8C56.4317 7.8 57.185 7.97333 57.825 8.32C58.4783 8.65333 58.9983 9.07333 59.385 9.58V7.98H61.685V19H59.385V17.36C58.9983 17.88 58.4717 18.3133 57.805 18.66C57.1383 19.0067 56.3783 19.18 55.525 19.18C54.5783 19.18 53.7117 18.94 52.925 18.46C52.1383 17.9667 51.5117 17.2867 51.045 16.42C50.5917 15.54 50.365 14.5467 50.365 13.44ZM59.385 13.48C59.385 12.72 59.225 12.06 58.905 11.5C58.5983 10.94 58.1917 10.5133 57.685 10.22C57.1783 9.92667 56.6317 9.78 56.045 9.78C55.4583 9.78 54.9117 9.92667 54.405 10.22C53.8983 10.5 53.485 10.92 53.165 11.48C52.8583 12.0267 52.705 12.68 52.705 13.44C52.705 14.2 52.8583 14.8667 53.165 15.44C53.485 16.0133 53.8983 16.4533 54.405 16.76C54.925 17.0533 55.4717 17.2 56.045 17.2C56.6317 17.2 57.1783 17.0533 57.685 16.76C58.1917 16.4667 58.5983 16.04 58.905 15.48C59.225 14.9067 59.385 14.24 59.385 13.48ZM70.2397 7.8C71.1064 7.8 71.8797 7.98 72.5597 8.34C73.253 8.7 73.793 9.23333 74.1797 9.94C74.5664 10.6467 74.7597 11.5 74.7597 12.5V19H72.4997V12.84C72.4997 11.8533 72.253 11.1 71.7597 10.58C71.2664 10.0467 70.593 9.78 69.7397 9.78C68.8864 9.78 68.2064 10.0467 67.6997 10.58C67.2064 11.1 66.9597 11.8533 66.9597 12.84V19H64.6797V7.98H66.9597V9.24C67.333 8.78667 67.8064 8.43333 68.3797 8.18C68.9664 7.92667 69.5864 7.8 70.2397 7.8ZM90.2633 0.119999L84.8233 22.5H82.5833L88.0033 0.119999H90.2633ZM93.8767 7.24H96.7567L101.357 11.78L96.7567 16.32H93.8767L98.4967 11.78L93.8767 7.24Z" fill="white" fill-opacity="0.89"/>
</svg>
